# xmcd CD database file
#
# Track frame offsets:
#	183
#	25435
#	43523
#	65145
#	84070
#	98835
#	116983
#	129705
#	146920
#	163908
#	182828
#	198535
#	212980
#	226195
#	243890
#	259505
#	275983
#	293128
#
# Disc length: 4107 seconds
#
# Revision: 0
# Processed by: cddbd v1.5.1PL0 Copyright (c) Steve Scherf et al.
# Submitted via: CDex 1.51
#
DISCID=1a100912
DTITLE=Hernán Oliva - El violín del Jazz
DYEAR=1900
DGENRE=Jazz
TTITLE0=Swing de París
TTITLE1=Muñeca de papel
TTITLE2=Alguna de esas cosas
TTITLE3=Embraceable you
TTITLE4=Bye, bye blues
TTITLE5=Pobre mariposa
TTITLE6=Tres palabritas
TTITLE7=Ayer
TTITLE8=Saint Louis blues
TTITLE9=Tristezas del Plata
TTITLE10=Dulce Georgia Brown
TTITLE11=Minor swing
TTITLE12=Todo de mí
TTITLE13=Polvo de estrellas
TTITLE14=El paso del tigre
TTITLE15=No puedo darte más amor, nena
TTITLE16=Vi estrellas
TTITLE17=Minor blues
EXTD=
EXTT0=
EXTT1=
EXTT2=
EXTT3=
EXTT4=
EXTT5=
EXTT6=
EXTT7=
EXTT8=
EXTT9=
EXTT10=
EXTT11=
EXTT12=
EXTT13=
EXTT14=
EXTT15=
EXTT16=
EXTT17=
PLAYORDER=
